<?xml version="1.0" encoding="utf-8"?>
<!-- Generator: Adobe Illustrator 27.5.0, SVG Export Plug-In . SVG Version: 6.00 Build 0)  -->
<svg version="1.1" xmlns="http://www.w3.org/2000/svg" xmlns:xlink="http://www.w3.org/1999/xlink" x="0px" y="0px"
	 viewBox="0 0 500 500" style="enable-background:new 0 0 500 500;" xml:space="preserve">
<g id="BACKGROUND">
	<rect x="0.008" y="0.007" style="fill:#E7EFF7;" width="500" height="500"/>
</g>
<g id="OBJECTS">
	<g>
		<g>
			<g>
				<g>
					<path style="fill:#FFA96E;" d="M99.848,140.58c-20.106,0-36.461-16.356-36.461-36.461s16.355-36.461,36.461-36.461
						s36.461,16.356,36.461,36.461S119.954,140.58,99.848,140.58z M99.848,82.242c-12.063,0-21.877,9.814-21.877,21.877
						s9.813,21.877,21.877,21.877s21.877-9.814,21.877-21.877S111.911,82.242,99.848,82.242z"/>
					<rect x="88.707" y="50.845" style="fill:#FFA96E;" width="22.687" height="22.687"/>
					
						<rect x="119.598" y="65.936" transform="matrix(0.6666 0.7454 -0.7454 0.6666 101.2641 -71.8411)" style="fill:#FFA96E;" width="22.687" height="22.687"/>
					
						<rect x="58.88" y="66.341" transform="matrix(-0.6541 0.7564 -0.7564 -0.6541 174.9176 75.3757)" style="fill:#FFA96E;" width="22.687" height="22.687"/>
					<g>
						<rect x="88.808" y="132.981" style="fill:#FFA96E;" width="22.687" height="22.687"/>
						
							<rect x="119.699" y="122.752" transform="matrix(0.6666 -0.7454 0.7454 0.6666 -56.2672 142.3922)" style="fill:#FFA96E;" width="22.687" height="22.687"/>
						
							<rect x="58.981" y="122.347" transform="matrix(-0.6541 -0.7564 0.7564 -0.6541 15.1928 274.3288)" style="fill:#FFA96E;" width="22.687" height="22.687"/>
					</g>
					
						<rect x="46.574" y="94.295" transform="matrix(-1.836970e-16 1 -1 -1.836970e-16 163.5558 47.7203)" style="fill:#FFA96E;" width="22.687" height="22.687"/>
					
						<rect x="129.523" y="92.775" transform="matrix(-1.836970e-16 1 -1 -1.836970e-16 244.9855 -36.7477)" style="fill:#FFA96E;" width="22.687" height="22.687"/>
				</g>
				<g>
					<path style="fill:#FFA96E;" d="M249.648,139.359c-20.106,0-36.461-16.356-36.461-36.461s16.355-36.461,36.461-36.461
						s36.461,16.356,36.461,36.461S269.754,139.359,249.648,139.359z M249.648,81.022c-12.063,0-21.877,9.814-21.877,21.877
						s9.813,21.877,21.877,21.877s21.877-9.814,21.877-21.877S261.712,81.022,249.648,81.022z"/>
					<rect x="238.508" y="49.625" style="fill:#FFA96E;" width="22.687" height="22.687"/>
					
						<rect x="269.398" y="64.716" transform="matrix(0.6666 0.7454 -0.7454 0.6666 150.2999 -183.9136)" style="fill:#FFA96E;" width="22.687" height="22.687"/>
					
						<rect x="208.68" y="65.121" transform="matrix(-0.6541 0.7564 -0.7564 -0.6541 421.7739 -39.958)" style="fill:#FFA96E;" width="22.687" height="22.687"/>
					<g>
						<rect x="238.609" y="131.761" style="fill:#FFA96E;" width="22.687" height="22.687"/>
						
							<rect x="269.499" y="121.532" transform="matrix(0.6666 -0.7454 0.7454 0.6666 -5.4118 253.6508)" style="fill:#FFA96E;" width="22.687" height="22.687"/>
						
							<rect x="208.782" y="121.127" transform="matrix(-0.6541 -0.7564 0.7564 -0.6541 263.8955 385.625)" style="fill:#FFA96E;" width="22.687" height="22.687"/>
					</g>
					
						<rect x="196.375" y="93.074" transform="matrix(-1.836970e-16 1 -1 -1.836970e-16 312.1358 -103.3006)" style="fill:#FFA96E;" width="22.687" height="22.687"/>
					
						<rect x="279.324" y="91.555" transform="matrix(-1.836970e-16 1 -1 -1.836970e-16 393.5654 -187.7686)" style="fill:#FFA96E;" width="22.687" height="22.687"/>
				</g>
				<g>
					<path style="fill:#FFA96E;" d="M401.565,141.526c-20.106,0-36.461-16.356-36.461-36.461s16.355-36.461,36.461-36.461
						c20.106,0,36.461,16.356,36.461,36.461S421.671,141.526,401.565,141.526z M401.565,83.188
						c-12.063,0-21.877,9.814-21.877,21.877s9.813,21.877,21.877,21.877c12.063,0,21.877-9.814,21.877-21.877
						S413.629,83.188,401.565,83.188z"/>
					<rect x="390.424" y="51.791" style="fill:#FFA96E;" width="22.687" height="22.687"/>
					
						<rect x="421.315" y="66.882" transform="matrix(0.6666 0.7454 -0.7454 0.6666 202.5663 -296.4343)" style="fill:#FFA96E;" width="22.687" height="22.687"/>
					
						<rect x="360.597" y="67.287" transform="matrix(-0.6541 0.7564 -0.7564 -0.6541 674.6927 -151.2899)" style="fill:#FFA96E;" width="22.687" height="22.687"/>
					<g>
						<rect x="390.525" y="133.928" style="fill:#FFA96E;" width="22.687" height="22.687"/>
						
							<rect x="421.416" y="123.698" transform="matrix(0.6666 -0.7454 0.7454 0.6666 43.6244 367.6162)" style="fill:#FFA96E;" width="22.687" height="22.687"/>
						
							<rect x="360.698" y="123.293" transform="matrix(-0.6541 -0.7564 0.7564 -0.6541 513.5364 504.1245)" style="fill:#FFA96E;" width="22.687" height="22.687"/>
					</g>
					
						<rect x="348.291" y="95.241" transform="matrix(-1.836970e-16 1 -1 -1.836970e-16 466.2191 -253.0506)" style="fill:#FFA96E;" width="22.687" height="22.687"/>
					
						<rect x="431.24" y="93.722" transform="matrix(-1.836970e-16 1 -1 -1.836970e-16 547.6487 -337.5186)" style="fill:#FFA96E;" width="22.687" height="22.687"/>
				</g>
			</g>
			<g>
				<g>
					<g>
						<rect x="312.742" y="448.006" style="fill:#FFA55C;" width="142.342" height="35.328"/>
						<g>
							<g>
								<rect x="319.317" y="454.388" style="fill:#FFFFFF;" width="94.766" height="23.401"/>
								<g>
									<rect x="321.832" y="458.256" style="fill:#D8E5EF;" width="71.945" height="2.901"/>
									<rect x="322.025" y="464.831" style="fill:#D8E5EF;" width="71.945" height="2.901"/>
									<rect x="322.218" y="471.407" style="fill:#D8E5EF;" width="71.945" height="2.901"/>
								</g>
							</g>
							<g>
								<g>
									<circle style="fill:#FFFFFF;" cx="435.228" cy="465.927" r="13.022"/>
								</g>
								<circle style="fill:#1D2230;" cx="435.228" cy="465.927" r="11.346"/>
							</g>
						</g>
					</g>
					<g>
						
							<rect x="322.799" y="409.713" transform="matrix(-1 -4.490553e-11 4.490553e-11 -1 787.9391 854.7528)" style="fill:#4A4E77;" width="142.342" height="35.328"/>
						<g>
							<g>
								
									<rect x="363.799" y="416.095" transform="matrix(-1 -4.491530e-11 4.491530e-11 -1 822.3643 855.5908)" style="fill:#FFFFFF;" width="94.766" height="23.401"/>
								<g>
									
										<rect x="384.106" y="419.963" transform="matrix(-1 -4.490287e-11 4.490287e-11 -1 840.157 842.8265)" style="fill:#D8E5EF;" width="71.945" height="2.901"/>
									
										<rect x="383.913" y="426.538" transform="matrix(-1 -4.492818e-11 4.492818e-11 -1 839.7703 855.9777)" style="fill:#D8E5EF;" width="71.945" height="2.901"/>
									
										<rect x="383.719" y="433.114" transform="matrix(-1 -4.487756e-11 4.487756e-11 -1 839.3835 869.1288)" style="fill:#D8E5EF;" width="71.945" height="2.901"/>
								</g>
							</g>
							<g>
								<g>
									<circle style="fill:#FFFFFF;" cx="342.654" cy="427.634" r="13.022"/>
								</g>
								<circle style="fill:#1D2230;" cx="342.654" cy="427.634" r="11.346"/>
							</g>
						</g>
					</g>
					<g>
						
							<rect x="299.996" y="372.64" transform="matrix(-1 -4.489266e-11 4.489266e-11 -1 742.3336 780.6085)" style="fill:#767DAD;" width="142.342" height="35.328"/>
						<g>
							<g>
								
									<rect x="340.996" y="379.023" transform="matrix(-1 -4.489621e-11 4.489621e-11 -1 776.7587 781.4466)" style="fill:#FFFFFF;" width="94.766" height="23.401"/>
								<g>
									
										<rect x="361.303" y="382.891" transform="matrix(-1 -4.490287e-11 4.490287e-11 -1 794.5515 768.6822)" style="fill:#D8E5EF;" width="71.945" height="2.901"/>
									
										<rect x="361.11" y="389.466" transform="matrix(-1 -4.490287e-11 4.490287e-11 -1 794.1647 781.8334)" style="fill:#D8E5EF;" width="71.945" height="2.901"/>
									
										<rect x="360.917" y="396.042" transform="matrix(-1 -4.490287e-11 4.490287e-11 -1 793.7779 794.9846)" style="fill:#D8E5EF;" width="71.945" height="2.901"/>
								</g>
							</g>
							<g>
								<g>
									<circle style="fill:#FFFFFF;" cx="319.851" cy="390.562" r="13.022"/>
								</g>
								<circle style="fill:#1D2230;" cx="319.851" cy="390.562" r="11.346"/>
							</g>
						</g>
					</g>
				</g>
				<g>
					<g>
						<g>
							<path style="fill:#2D3547;" d="M144.335,449.168c0,0-25.892-34.51-27.372-56.13c-1.48-21.621-1.48-21.621-1.48-21.621
								s21.084,16.215,28.481,32.431S144.335,449.168,144.335,449.168z"/>
							<path style="fill:#394559;" d="M153.057,440.75c0,0-22.155-37.654-21.392-59.321c0.762-21.667,0.762-21.667,0.762-21.667
								s19.267,18.856,24.941,35.927C163.042,412.759,153.057,440.75,153.057,440.75z"/>
							<path style="fill:#2D3547;" d="M171.025,449.168c0,0,25.892-34.51,27.372-56.13c1.48-21.621,1.48-21.621,1.48-21.621
								s-21.084,16.215-28.481,32.431S171.025,449.168,171.025,449.168z"/>
							<path style="fill:#394559;" d="M167.744,442.76c0,0,18.849-39.863,16.247-61.349c-2.602-21.486-2.602-21.486-2.602-21.486
								s-17.575,20.841-21.77,38.443S167.744,442.76,167.744,442.76z"/>
							<path style="fill:#2D3547;" d="M161.106,438.366c0,0,10.596-43.545,3.857-63.863c-6.739-20.318-6.739-20.318-6.739-20.318
								s-13.071,24.673-13.723,42.881C143.85,415.274,161.106,438.366,161.106,438.366z"/>
						</g>
						<g>
							<rect x="130.772" y="429.21" style="fill:#E8904D;" width="53.264" height="51.141"/>
							<rect x="135.272" y="430.851" style="fill:#FFA96E;" width="44.264" height="42.5"/>
						</g>
					</g>
					<g>
						<g>
							<rect x="34.257" y="399.25" style="fill:#E8904D;" width="58.078" height="81.5"/>
							<rect x="38.59" y="403.917" style="fill:#FFA96E;" width="29.051" height="70.5"/>
						</g>
						<g>
							<rect x="89.383" y="412.103" style="fill:#E8904D;" width="24.279" height="7.426"/>
							<rect x="88.526" y="457.804" style="fill:#E8904D;" width="24.279" height="7.426"/>
							
								<rect x="84.959" y="434.933" transform="matrix(2.054540e-11 -1 1 2.054540e-11 -327.1265 550.166)" style="fill:#FFA96E;" width="53.121" height="7.426"/>
						</g>
					</g>
				</g>
			</g>
		</g>
		<g>
			<g>
				<g>
					<rect x="33.506" y="102.676" style="fill:#FFFFFF;" width="131.333" height="224.667"/>
					<g>
						<g>
							<defs>
								<rect id="SVGID_1_" x="39.495" y="108.852" width="119.5" height="173.168"/>
							</defs>
							<clipPath id="SVGID_00000177454422610515756300000003696040962808133563_">
								<use xlink:href="#SVGID_1_"  style="overflow:visible;"/>
							</clipPath>
							<g style="clip-path:url(#SVGID_00000177454422610515756300000003696040962808133563_);">
								<rect x="39.495" y="108.852" style="fill:#D3E2F4;" width="119.5" height="173.168"/>
								<g>
									<g>
										<g>
											<g>
												<g>
													<g>
														<path style="fill:#F7A180;" d="M103.325,182.516c-0.36-2.808-0.9-7.426-1.023-8.188
															c-0.695-4.326-0.695-4.326-0.695-4.326l-14.87,1.611c0,0,0.002,9.758,0.129,12.886
															c0.305,7.467,10.649,5.369,14.721,2.699C102.185,185.449,102.783,183.867,103.325,182.516z"/>
														<path style="fill:#DB836E;" d="M86.717,173.115l0.149,0.18c0,0,3.376,5.474,15.633,2.602l-0.718-5.722L86.717,173.115
															z"/>
													</g>
												</g>
												<g>
													<g>
														<g>
															<g>
																<path style="fill:#F7A180;" d="M90.73,174.646c0,0,6.825,0.898,12.693-4.013c5.869-4.912,5.575-9.416,6.387-8.977
																	c1.002,0.542,4.146,0.341,5.513-5.229c1.221-4.973-1.434-6.669-2.564-6.898c-0.723-0.147-1.501,0.533-1.501,0.533
																	s2.295-24.423-16.323-25.541c-23.172-1.391-21.47,19.726-20.335,26.68c0,0-2.238-2.518-3.208,0.983
																	c-0.97,3.501,1.334,10.789,3.919,10.954c0.224,0.014,1.377-0.519,1.432-0.448
																	C77.716,163.948,80.53,172.429,90.73,174.646z"/>
															</g>
															<g>
																<path style="fill:#E26464;" d="M74.59,155.592c0,0-0.852,0.929-0.27,2.07c0.581,1.142,0.007,1.443-0.647,0.856
																	c-0.654-0.587-1.285-3.964-0.703-4.686C73.551,153.11,74.691,154.816,74.59,155.592z"/>
																<path style="fill:#E26464;" d="M111.677,154.001c0,0,0.781,0.989,0.117,2.085c-0.664,1.096-0.113,1.438,0.583,0.901
																	c0.695-0.537,1.573-3.859,1.047-4.621C112.896,151.603,111.633,153.22,111.677,154.001z"/>
															</g>
														</g>
														<g>
															<g>
																<g>
																	<path style="fill:#E26464;" d="M90.496,167.307c-0.024,0.001-0.048,0.001-0.073,0.002
																		c-1.53,0.023-2.336-0.689-2.728-1.238c-0.208-0.29-0.068-0.699,0.272-0.81l0,0
																		c0.222-0.072,0.459,0.011,0.597,0.199c0.248,0.336,0.784,0.801,1.843,0.785c1.174-0.018,1.906-0.646,2.256-1.048
																		c0.162-0.186,0.435-0.227,0.65-0.108l0.001,0c0.291,0.162,0.369,0.552,0.151,0.804
																		C92.984,166.45,92.025,167.26,90.496,167.307z"/>
																</g>
																<g>
																	
																		<ellipse transform="matrix(0.0462 -0.9989 0.9989 0.0462 -63.0198 253.64)" style="fill:#E26464;" cx="101.305" cy="159.819" rx="2.098" ry="2.238"/>
																	<g>
																		<path style="fill:#1D2230;" d="M97.978,147.011c0,0,2.689-0.203,2.943,1.278c0.268,1.559-1.064-0.152-3.17,0.305
																			c-0.941,0.205-1.36,0.118-1.373-0.451C96.355,147.13,97.827,147.032,97.978,147.011z"/>
																		<g>
																			
																				<ellipse transform="matrix(0.0462 -0.9989 0.9989 0.0462 -59.6671 244.4198)" style="fill:#1D2230;" cx="98.153" cy="153.454" rx="2.378" ry="1.932"/>
																		</g>
																	</g>
																</g>
																<g>
																	
																		<ellipse transform="matrix(0.9992 -0.0402 0.0402 0.9992 -6.3738 3.3655)" style="fill:#E26464;" cx="80.455" cy="160.09" rx="2.238" ry="2.098"/>
																	<g>
																		<path style="fill:#1D2230;" d="M83.638,147.459c0,0-2.696-0.035-2.858,1.459c-0.17,1.572,1.053-0.218,3.183,0.107
																			c0.952,0.146,1.365,0.033,1.342-0.536C85.265,147.476,83.789,147.47,83.638,147.459z"/>
																		<g>
																			
																				<ellipse transform="matrix(0.9992 -0.0402 0.0402 0.9992 -6.1125 3.4723)" style="fill:#1D2230;" cx="83.242" cy="153.649" rx="1.932" ry="2.378"/>
																		</g>
																	</g>
																</g>
															</g>
															<path style="fill:#E26464;" d="M90.634,156.272c0,0-2.206-0.831-2.339,1.763c-0.133,2.594,2.245,2.229,2.245,2.229
																s0.392-0.243,0.201-0.668s-1.924-0.025-1.809-1.467c0.115-1.442,1.541-0.884,1.772-1.093
																S90.634,156.272,90.634,156.272z"/>
														</g>
													</g>
													<g>
														<g>
															<path style="fill:#5E1935;" d="M101.59,187.196c-0.001,0.001-0.002,0.001-0.003,0.002
																c-0.012,0.034-0.023,0.071-0.034,0.105C101.565,187.266,101.577,187.233,101.59,187.196z"/>
														</g>
													</g>
												</g>
											</g>
										</g>
										<g>
											<g>
												<g>
													<path style="fill:#6D4B49;" d="M99.853,131.043c0,0,3.162-3.75,5.62-3.16s7.162,2.177,8.047,6.798
														c0.885,4.621-1.825,12.459-2.906,16.195c-0.141,0.488-1.395,5.029-1.518,5.436c-0.819,2.707-2.61,1.671-3.294,1.671
														c-0.787,0-1.694-4.206-1.95-11.897c-0.262-7.866-21.174-3.802-21.174-3.802S97.002,131.338,99.853,131.043z"/>
												</g>
											</g>
											<path style="fill:#6D4B49;" d="M110.614,150.876c0,0,0.708-1.14,1.524-1.27c0.206-0.033,0.585-0.129,0.875-0.003
												c0.449-4.378,1.192-10.686,0.704-13.545c-0.603-3.53-3.542-0.687-4.835-0.074
												C111.355,142.82,110.614,150.876,110.614,150.876z"/>
											<path style="fill:#6D4B49;" d="M96.9,136.287c0,0-14.737,15.422-23.99,11.481c-9.253-3.941-4.113-16.622-0.514-15.594
												s3.599-8.225,9.767-9.253c6.169-1.028,7.711,2.57,11.995,0.857s17.65,1.714,14.223,9.596
												C104.954,141.257,96.9,136.287,96.9,136.287z"/>
											<path style="fill:#6D4B49;" d="M74.088,148.133c0,0,0.386,5.591,1.349,7.775c0.964,2.185,2.313,2.699,2.442,0
												s0.428-9.66,0.428-10.11S73.767,145.819,74.088,148.133z"/>
										</g>
									</g>
									<g>
										<g>
											<path style="fill:#121721;" d="M69.14,282.799c0.02-0.003,1.009-32.64,1.028-32.644
												c0.746-9.123-1.411-18.633-0.943-25.612c-0.818-10.716-2.83-27.004-2.609-31.238
												c-1.18,5.931-12.222,81.615-12.813,87.762C53.148,287.884,64.814,283.455,69.14,282.799z"/>
											<g>
												<path style="fill:#1D2230;" d="M120.304,243.032c2.357-5.847,6.686-50.931,6.686-50.931l-4.19-1.526l-0.726-1.62
													c0,0-16.128-7.868-18.681-9.439c0,0-2.095,3.829-9.963,7.858l-8.03-5.695c0,0-1.278-0.393-10.193,4.588
													c-8.888,4.967-7.341,4.982-8.39,6.031c-0.96,0.96,1.485,20.155,2.408,32.245c-1.282,19.109-4.604,55.748-4.506,57.949
													c0.589,13.126,52.444,6.531,57.158,1.623C126.591,279.206,117.947,248.879,120.304,243.032z"/>
												<path style="fill:#1D2230;" d="M104.081,180.401c0,0,23.313,5.55,26.055,10.914c6.69,13.088,14.966,89.834,14.573,95.34
													c-0.155,2.165-8.308,5.673-11.053,5.912c-4.523,0.393-17.479-77.111-17.479-77.111S112.733,187.284,104.081,180.401z"/>
											</g>
											<g>
												<g>
													<polygon style="fill:#121721;" points="66.817,192.298 66.817,192.298 66.817,192.298 													"/>
												</g>
												<path style="fill:#121721;" d="M121.404,255.296c-0.293-2.055,0.257-6.147-0.214-13.494
													c-1.671-10.153-2.489-23.973-3.47-27.503c-0.686,6.303,0,26.708,0,30.33c0,4.523,0.028,20.624-0.169,29.08
													c-0.197,8.456-1.966,12.388-1.966,12.388s4.129-0.032,6.292-1.982c2.163-1.951,1.77-7.85,1.573-9.816
													C123.254,272.332,121.994,259.426,121.404,255.296z"/>
											</g>
										</g>
										<path style="fill:#121721;" d="M86.361,178.185l-2.313,4.284c0,0,2.935,6.019,8.675,6.19
											c5.741,0.171,13.173-7.561,13.173-7.561l-3.17-4.541c0,0-1.028,2.313-7.111,3.427S86.361,178.185,86.361,178.185z"/>
									</g>
								</g>
							</g>
						</g>
						<g>
							<g>
								<rect x="39.496" y="287.311" style="fill:#D3E2F4;" width="47" height="10.333"/>
								<g>
									<rect x="39.488" y="301.139" style="fill:#D3E2F4;" width="77.591" height="6.5"/>
									<rect x="39.506" y="311.192" style="fill:#D3E2F4;" width="77.591" height="6.5"/>
								</g>
							</g>
							<path style="fill:#D3E2F4;" d="M155.143,317.501h-27.699v-25.885h27.699V317.501z M130.346,314.598h21.893v-20.079h-21.893
								V314.598z"/>
						</g>
					</g>
				</g>
				<g>
					<rect x="335.283" y="102.675" style="fill:#FFFFFF;" width="131.333" height="224.667"/>
					<g>
						<g>
							<g>
								<rect x="341.273" y="287.311" style="fill:#D3E2F4;" width="47" height="10.333"/>
								<g>
									<rect x="341.265" y="301.139" style="fill:#D3E2F4;" width="77.591" height="6.5"/>
									<rect x="341.283" y="311.191" style="fill:#D3E2F4;" width="77.591" height="6.5"/>
								</g>
							</g>
							<path style="fill:#D3E2F4;" d="M456.92,317.5h-27.699v-25.885h27.699V317.5z M432.124,314.597h21.893v-20.079h-21.893
								V314.597z"/>
						</g>
						<g>
							<defs>
								
									<rect id="SVGID_00000126306181154453182290000008565768089108945566_" x="341.272" y="108.851" width="119.5" height="173.168"/>
							</defs>
							<clipPath id="SVGID_00000070824742881843021190000018009918013586138507_">
								<use xlink:href="#SVGID_00000126306181154453182290000008565768089108945566_"  style="overflow:visible;"/>
							</clipPath>
							<g style="clip-path:url(#SVGID_00000070824742881843021190000018009918013586138507_);">
								<rect x="341.272" y="108.851" style="fill:#D3E2F4;" width="119.5" height="173.168"/>
								<g>
									<g>
										<path style="fill:#7F6060;" d="M386.543,179.132c0,0,12.313-3.594,21.188-1.469c0,0,9.75-11.875,3.125-27.5
											s-12.125-18-21.875-16.25S373.043,170.882,386.543,179.132z"/>
										<g>
											<g>
												<g>
													<path style="fill:#F7A180;" d="M405.939,183.332c-0.34-2.65-0.85-7.01-0.965-7.729
														c-0.656-4.083-0.656-4.083-0.656-4.083l-14.036,1.52c0,0,0.124,9.208,0.122,12.163
														c-0.006,10.584,10.052,5.067,13.895,2.548C404.863,186.101,405.427,184.607,405.939,183.332z"/>
													<path style="fill:#DB836E;" d="M390.263,174.459l0.141,0.17c0,0,3.186,5.167,14.756,2.456l-0.678-5.401
														L390.263,174.459z"/>
												</g>
											</g>
											<g>
												<g>
													<g>
														<path style="fill:#F7A180;" d="M394.05,175.904c0,0,6.442,0.848,11.981-3.788c5.539-4.636,5.263-8.888,6.028-8.473
															c0.946,0.512,2.559,0.27,3.85-4.988c1.152-4.694,0-6.243-1.066-6.46c-0.682-0.138-1.417,0.503-1.417,0.503
															s2.167-23.053-15.407-24.108c-21.872-1.313-20.266,18.619-19.194,25.183c0,0-2.112-2.377-3.028,0.928
															c-0.915,3.305,1.259,10.184,3.7,10.339c0.212,0.013,1.3-0.49,1.351-0.423
															C381.767,165.806,384.422,173.811,394.05,175.904z"/>
													</g>
													<g>
														<path style="fill:#E26464;" d="M378.816,157.919c0,0-0.804,0.876-0.255,1.954s0.006,1.362-0.611,0.808
															c-0.617-0.554-1.213-3.742-0.664-4.423C377.834,155.576,378.911,157.186,378.816,157.919z"/>
														<path style="fill:#E26464;" d="M413.822,156.417c0,0,0.737,0.933,0.11,1.968c-0.627,1.034-0.106,1.358,0.55,0.851
															s1.485-3.642,0.988-4.362C414.973,154.153,413.781,155.68,413.822,156.417z"/>
													</g>
												</g>
												<g>
													<g>
														<g>
															<path style="fill:#E26464;" d="M393.829,168.977c-0.023,0.001-0.046,0.001-0.069,0.002
																c-1.444,0.022-2.205-0.651-2.575-1.168c-0.196-0.274-0.064-0.66,0.257-0.764l0,0
																c0.209-0.068,0.433,0.011,0.564,0.188c0.234,0.317,0.74,0.757,1.74,0.741c1.108-0.017,1.799-0.609,2.129-0.99
																c0.153-0.176,0.41-0.215,0.614-0.102l0.001,0c0.275,0.152,0.348,0.521,0.142,0.759
																C396.178,168.167,395.273,168.932,393.829,168.977z"/>
														</g>
														<g>
															
																<ellipse transform="matrix(0.0462 -0.9989 0.9989 0.0462 223.6485 558.0377)" style="fill:#E26464;" cx="404.032" cy="161.909" rx="1.981" ry="2.113"/>
															<g>
																<g>
																	<path style="fill:#1D2230;" d="M400.891,149.819c0,0,2.538-0.192,2.778,1.206c0.253,1.471-1.005-0.144-2.992,0.288
																		c-0.889,0.193-1.284,0.111-1.296-0.426C399.36,149.931,400.749,149.839,400.891,149.819z"/>
																	<g>
																		
																			<ellipse transform="matrix(0.0462 -0.9989 0.9989 0.0462 226.8132 549.3347)" style="fill:#1D2230;" cx="401.057" cy="155.9" rx="2.245" ry="1.823"/>
																		<g>
																			<path style="fill:#1D2230;" d="M401.901,154.502c0,0,1.066-0.743,0.865-1.078
																				c-0.201-0.335,0.821,0.094,0.393,0.554C402.731,154.438,402.144,154.88,401.901,154.502z"/>
																			<path style="fill:#1D2230;" d="M402.325,154.639c0,0,1.212-0.357,1.209-0.774
																				c-0.002-0.417,0.616,0.405,0.052,0.713C403.023,154.887,402.34,155.117,402.325,154.639z"/>
																			<path style="fill:#1D2230;" d="M402.627,155.07c0,0,1.19-0.054,1.325-0.486c0.135-0.432,0.412,0.578-0.189,0.751
																				C403.164,155.507,402.484,155.568,402.627,155.07z"/>
																		</g>
																	</g>
																</g>
															</g>
														</g>
														<g>
															
																<ellipse transform="matrix(0.9992 -0.0402 0.0402 0.9992 -6.2113 15.59)" style="fill:#E26464;" cx="384.351" cy="162.165" rx="2.113" ry="1.981"/>
															<g>
																<g>
																	<path style="fill:#1D2230;" d="M387.356,150.242c0,0-2.545-0.033-2.697,1.377c-0.16,1.484,0.994-0.206,3.005,0.101
																		c0.899,0.137,1.288,0.031,1.267-0.506C388.891,150.258,387.499,150.253,387.356,150.242z"/>
																	<g>
																		
																			<ellipse transform="matrix(0.9992 -0.0402 0.0402 0.9992 -5.9647 15.6908)" style="fill:#1D2230;" cx="386.982" cy="156.085" rx="1.823" ry="2.245"/>
																		<g>
																			<path style="fill:#1D2230;" d="M386.185,154.625c0,0-1.11-0.675-0.931-1.022c0.18-0.347-0.813,0.145-0.357,0.578
																				S385.966,155.017,386.185,154.625z"/>
																			<path style="fill:#1D2230;" d="M385.771,154.788c0,0-1.232-0.281-1.255-0.697
																				c-0.024-0.417-0.589,0.442-0.008,0.715C385.09,155.079,385.786,155.266,385.771,154.788z"/>
																			<path style="fill:#1D2230;" d="M385.496,155.238c0,0-1.191,0.02-1.352-0.403s-0.375,0.603,0.235,0.738
																				S385.67,155.725,385.496,155.238z"/>
																		</g>
																	</g>
																</g>
															</g>
														</g>
													</g>
													<path style="fill:#E26464;" d="M393.96,158.561c0,0-2.082-0.784-2.208,1.664c-0.126,2.448,2.119,2.104,2.119,2.104
														s0.37-0.229,0.19-0.631c-0.18-0.402-1.816-0.023-1.708-1.384c0.108-1.361,1.455-0.834,1.673-1.031
														C394.243,159.085,393.96,158.561,393.96,158.561z"/>
												</g>
											</g>
										</g>
										<g>
											<g>
												<path style="fill:#8E7170;" d="M391.318,139.117c0,0-6.71,1.394,6.787,6.671s12.25,23.819,8.292,30.417
													c-1.125,1.875,3.647,1.906,8.458,2.208c4.811,0.302,8.149-6.579,8.875-12.625c0.75-6.25-1.917-27.667-10.25-35
													c-6.434-5.662-10.241-6.807-15.208-6.667c-4.507,0.128-7.917,0.943-9.244,3.305S389.124,137.74,391.318,139.117z"/>
												<path style="fill:#8E7170;" d="M395.586,138.171c0,0-6.709,5.623-10.864,8.91c-4.155,3.287-2.998,19.45-0.687,25.927
													s5.835,5.51,1.113,6.448c-4.722,0.938-7.652,0.025-9.5-2.333c-2.417-3.083-2.817-12.801-3.417-18.458
													c-0.875-8.25-0.064-31.921,21.75-32.042C403.75,126.568,395.586,138.171,395.586,138.171z"/>
											</g>
										</g>
									</g>
									<g>
										<g>
											<g>
												<g>
													<path style="fill:#32345B;" d="M366.553,273.995c0.571,0.799,1.182,1.587,1.826,2.365
														c3.431-8.996,8.723-23.147,10.351-22.821c2.475,0.495,14.056-58.615,14.551-63.317l-0.124-0.495l-5.383-5.197
														c0,0-10.274,4.924-14.911,7.053c-6.13,2.814-7.599,45.499-7.555,89.042
														C366.033,276.508,366.553,273.995,366.553,273.995z"/>
													<g>
														<path style="fill:#32345B;" d="M372.74,199.007c0,0,2.908,0.804,1.98,7.301s-2.475,8.167-3.094,12.003
															c-0.619,3.836,2.756,8.253,5.354,10.728c2.599,2.475,0.167,25.75,0.167,25.75s5.74,4.852,8.462,4.852
															s25.038-9.185,25.038-9.185s-0.166-11.727-0.289-12.222s10.766-26.728,10.766-26.728l-2.475-10.889L372.74,199.007z"
															/>
														<path style="fill:#32345B;" d="M412.09,206.431c0,0,9.501,80.233,12.224,80.357c2.722,0.124,16.753-1.858,17-4.333
															c0,0-12.121-84.591-15.833-89.417c-3.712-4.826-12.385-7.489-16.221-10.458c0,0-13.63,8.133-15.362,8.875
															c-1.732,0.742-10.639,12.625-10.639,12.625L412.09,206.431z"/>
													</g>
												</g>
												<g>
													<polygon style="fill:#282B4C;" points="412.105,214.288 412.48,232.747 414.636,227.242 													"/>
													<path style="fill:#282B4C;" d="M380.138,225.826c0,0,4.622-1.648,9.696-0.163c5.073,1.485,6.391,0.905,6.391,0.905
														s-8.538,2.97-10.766,2.97C383.232,229.538,380.138,225.826,380.138,225.826z"/>
													<g>
														<g>
															<g>
																<path style="fill:#282B4C;" d="M376.98,229.038c-2.599-2.475-5.035-9.081-4.417-12.917s1.228-3.318,2.156-9.814
																	c0.508-3.559-0.135-5.403-0.82-6.349c-0.037,0.014-0.071,0.023-0.108,0.038c0,0,0.274,5.246-0.557,7.858
																	c-2.026,6.373-2.048,7.066-2.13,10.559c-0.125,5.375,5.542,39.375,5.542,39.375l1.333-17.667
																	c0.257-2.055-0.23-7.068-0.5-9.121C377.355,230.041,377.192,229.24,376.98,229.038z"/>
															</g>
														</g>
													</g>
												</g>
											</g>
											<polygon style="fill:#373B63;" points="389.98,182.205 393.98,190.538 408.099,180.631 413.897,185.705 398.98,191.372 
												409.064,190.038 391.564,197.955 384.73,188.913 389.73,191.288 384.564,184.205 											"/>
										</g>
										<g>
											<path style="fill:#171C26;" d="M394.078,345.789l1.677-48.407c0,0-19.922-10.394-29.203-23.387
												c0,0-5.692,27.471-5.692,50.116c0,4.9,0.244,12.567,0.625,21.678H394.078z"/>
											<g>
												<path style="fill:#1D2230;" d="M372.276,257.939c0,0,9.745-0.402,13.952-1.145s26.003-5.631,26.003-5.631l8.398,18.995
													l-28.461,29.698c0,0-21.284-12.993-25.615-25.862L372.276,257.939z"/>
												<path style="fill:#1D2230;" d="M419.781,345.789c1.203-9.066,2.572-18.791,3.446-23.163
													c1.856-9.281,2.599-30.441,1.856-34.524c-0.742-4.083-4.455-17.943-4.455-17.943l-31.554,25.367
													c0,0-0.615,28.449-0.868,50.263H419.781z"/>
											</g>
											<path style="fill:#171C26;" d="M377.23,247.538c0,0-6.037,11.019-5.79,12.257c0.247,1.237,11.227,4.16,13.206,4.16
												c1.98,0,22.06-1.53,31.465-6.233c0,0-4.889-10.567-5.631-11.309c-0.742-0.742-21.404,4-24.25,4
												S378.096,247.538,377.23,247.538z"/>
										</g>
									</g>
								</g>
							</g>
						</g>
					</g>
				</g>
				<g>
					<g>
						<rect x="184.01" y="102.678" style="fill:#FFFFFF;" width="131.333" height="224.667"/>
						<g>
							<g>
								<g>
									<rect x="190" y="287.314" style="fill:#D3E2F4;" width="47" height="10.333"/>
									<g>
										<rect x="189.992" y="301.142" style="fill:#D3E2F4;" width="77.591" height="6.5"/>
										<rect x="190.01" y="311.194" style="fill:#D3E2F4;" width="77.591" height="6.5"/>
									</g>
								</g>
								<path style="fill:#D3E2F4;" d="M305.647,317.503h-27.699v-25.885h27.699V317.503z M280.85,314.6h21.893v-20.079H280.85
									V314.6z"/>
							</g>
							<g>
								<defs>
									
										<rect id="SVGID_00000014633190942611465970000010048041196617458821_" x="189.991" y="108.853" width="119.5" height="173.168"/>
								</defs>
								<clipPath id="SVGID_00000010275801045430684830000017065155267517145992_">
									<use xlink:href="#SVGID_00000014633190942611465970000010048041196617458821_"  style="overflow:visible;"/>
								</clipPath>
								<g style="clip-path:url(#SVGID_00000010275801045430684830000017065155267517145992_);">
									<rect x="189.991" y="108.853" style="fill:#D3E2F4;" width="119.5" height="173.168"/>
									<g>
										<g>
											<g>
												<g>
													<g>
														<g>
															<path style="fill:#F7A180;" d="M257.021,192.733c-0.34-2.65-0.85-7.01-0.965-7.729
																c-0.656-4.083-0.656-4.083-0.656-4.083l-14.036,1.52c0,0-0.253,9.232,0.122,12.163
																c0.514,4.022,10.052,5.067,13.895,2.548C255.945,195.501,256.509,194.008,257.021,192.733z"/>
															<path style="fill:#DB836E;" d="M241.345,183.859l0.141,0.17c0,0,3.186,5.167,14.756,2.456l-0.678-5.401
																L241.345,183.859z"/>
														</g>
													</g>
													<g>
														<g>
															<g>
																<path style="fill:#F7A180;" d="M245.132,185.304c0,0,6.442,0.848,11.981-3.788c5.539-4.636,5.263-8.888,6.028-8.473
																	c0.946,0.512,2.559,0.27,3.85-4.988c1.152-4.694,0-6.243-1.066-6.46c-0.682-0.138-1.417,0.503-1.417,0.503
																	s2.167-23.053-15.407-24.108c-21.872-1.313-20.266,18.619-19.194,25.183c0,0-2.112-2.377-3.028,0.928
																	s1.259,10.184,3.7,10.339c0.212,0.013,1.3-0.49,1.351-0.423C232.849,175.207,235.505,183.212,245.132,185.304z"/>
															</g>
															<g>
																<path style="fill:#E26464;" d="M229.898,167.319c0,0-0.804,0.876-0.255,1.954c0.549,1.078,0.006,1.362-0.611,0.808
																	c-0.617-0.554-1.213-3.742-0.664-4.423C228.917,164.977,229.994,166.587,229.898,167.319z"/>
																<path style="fill:#E26464;" d="M264.904,165.817c0,0,0.737,0.933,0.11,1.968s-0.106,1.358,0.55,0.851
																	s1.485-3.642,0.988-4.362C266.056,163.553,264.863,165.08,264.904,165.817z"/>
															</g>
														</g>
														<g>
															<g>
																<g>
																	<path style="fill:#E26464;" d="M244.912,178.377c-0.023,0.001-0.046,0.001-0.069,0.002
																		c-1.444,0.022-2.205-0.651-2.575-1.168c-0.196-0.274-0.064-0.66,0.257-0.764l0,0
																		c0.209-0.068,0.433,0.011,0.564,0.188c0.234,0.317,0.74,0.757,1.74,0.741c1.108-0.017,1.799-0.609,2.129-0.99
																		c0.153-0.176,0.41-0.215,0.614-0.102l0.001,0c0.275,0.152,0.348,0.521,0.142,0.759
																		C247.26,177.568,246.355,178.332,244.912,178.377z"/>
																</g>
																<g>
																	
																		<ellipse transform="matrix(0.0462 -0.9989 0.9989 0.0462 72.2133 418.2452)" style="fill:#E26464;" cx="255.114" cy="171.309" rx="1.981" ry="2.113"/>
																	<g>
																		<path style="fill:#1D2230;" d="M251.974,159.22c0,0,2.538-0.192,2.778,1.206c0.253,1.471-1.005-0.144-2.992,0.288
																			c-0.889,0.193-1.284,0.111-1.296-0.426C250.442,159.332,251.832,159.24,251.974,159.22z"/>
																		<g>
																			
																				<ellipse transform="matrix(0.0462 -0.9989 0.9989 0.0462 75.378 409.5423)" style="fill:#1D2230;" cx="252.139" cy="165.301" rx="2.245" ry="1.823"/>
																			<g>
																				<path style="fill:#1D2230;" d="M252.984,163.902c0,0,1.066-0.743,0.865-1.078
																					c-0.201-0.335,0.821,0.094,0.393,0.554C253.814,163.839,253.227,164.28,252.984,163.902z"/>
																				<path style="fill:#1D2230;" d="M253.407,164.04c0,0,1.212-0.357,1.209-0.774
																					c-0.002-0.417,0.616,0.405,0.052,0.713C254.105,164.287,253.422,164.517,253.407,164.04z"/>
																				<path style="fill:#1D2230;" d="M253.71,164.471c0,0,1.19-0.054,1.325-0.486
																					c0.135-0.432,0.412,0.578-0.189,0.751C254.246,164.908,253.566,164.968,253.71,164.471z"/>
																			</g>
																		</g>
																	</g>
																</g>
																<g>
																	
																		<ellipse transform="matrix(0.9992 -0.0402 0.0402 0.9992 -6.7099 9.608)" style="fill:#E26464;" cx="235.434" cy="171.565" rx="2.113" ry="1.981"/>
																	<g>
																		<path style="fill:#1D2230;" d="M238.439,159.642c0,0-2.545-0.033-2.697,1.377
																			c-0.16,1.484,0.994-0.206,3.005,0.101c0.899,0.137,1.288,0.031,1.267-0.506
																			C239.974,159.658,238.581,159.653,238.439,159.642z"/>
																		<g>
																			
																				<ellipse transform="matrix(0.9992 -0.0402 0.0402 0.9992 -6.4632 9.7089)" style="fill:#1D2230;" cx="238.064" cy="165.485" rx="1.823" ry="2.245"/>
																			<g>
																				<path style="fill:#1D2230;" d="M237.267,164.025c0,0-1.11-0.675-0.931-1.022s-0.813,0.145-0.357,0.578
																					C236.435,164.013,237.048,164.418,237.267,164.025z"/>
																				<path style="fill:#1D2230;" d="M236.853,164.189c0,0-1.232-0.281-1.255-0.697
																					c-0.024-0.417-0.589,0.442-0.008,0.715C236.172,164.479,236.868,164.666,236.853,164.189z"/>
																				<path style="fill:#1D2230;" d="M236.578,164.638c0,0-1.191,0.02-1.352-0.403
																					c-0.162-0.423-0.375,0.603,0.235,0.738S236.752,165.125,236.578,164.638z"/>
																			</g>
																		</g>
																	</g>
																</g>
															</g>
															<path style="fill:#E26464;" d="M245.042,167.961c0,0-2.082-0.784-2.208,1.664c-0.126,2.448,2.119,2.104,2.119,2.104
																s0.37-0.229,0.19-0.631c-0.18-0.402-1.816-0.023-1.708-1.384s1.455-0.834,1.673-1.031
																C245.326,168.486,245.042,167.961,245.042,167.961z"/>
														</g>
													</g>
												</g>
												<g>
													<g>
														<g>
															<g>
																<path style="fill:#5E1935;" d="M254.842,198.788c-0.014,0.045-0.029,0.087-0.043,0.133
																	C254.813,198.875,254.827,198.833,254.842,198.788z"/>
																<path style="fill:#5E1935;" d="M255.383,197.15c-0.001,0.001-0.002,0.001-0.003,0.002
																	c-0.011,0.032-0.022,0.067-0.033,0.099C255.36,197.217,255.371,197.185,255.383,197.15z"/>
															</g>
															<g>
																<path style="fill:#5E1935;" d="M240.97,194.537c0.051,0.14,0.107,0.274,0.156,0.417
																	C241.077,194.811,241.022,194.678,240.97,194.537z"/>
																<path style="fill:#5E1935;" d="M242.621,201.119c0.001,0,0.001,0,0.002,0c-0.005-0.033-0.013-0.066-0.019-0.099
																	C242.61,201.054,242.616,201.087,242.621,201.119z"/>
																<path style="fill:#5E1935;" d="M242.201,198.892c0.015,0.07,0.028,0.14,0.043,0.21
																	C242.229,199.032,242.216,198.961,242.201,198.892z"/>
															</g>
														</g>
													</g>
												</g>
											</g>
											<g>
												<path style="fill:#442929;" d="M247.688,151.439c0,0-4,5-11.125,5.375s-3.5,10.625-4.75,10.875s-1.25-1.875-2.625-4.875
													s-2.25-10.25-1.25-15.25s10.125-11.875,16.875-9.75S247.688,151.439,247.688,151.439z"/>
												<path style="fill:#442929;" d="M243.563,150.814c0,0,4.25,5.5,11.375,5.875s3.324,9.833,6.875,10.583
													c1.247,0.263,1.259-2.125,2.634-5.125s2.25-10.25,1.25-15.25s-10.125-11.875-16.875-9.75
													S243.563,150.814,243.563,150.814z"/>
												<path style="fill:#442929;" d="M242.438,142.314c0,0-3.25-10-1.5-13.625s8.5-6.125,14.5-4.5s6.625,4.875,6.875,6.5
													s-9.125,10.625-12.375,11.25S242.438,142.314,242.438,142.314z"/>
											</g>
										</g>
										<g>
											<g>
												<g>
													<path style="fill:#FFA55C;" d="M217.635,283.395c0.571,0.799,1.182,1.587,1.826,2.365
														c3.431-8.996,8.723-23.147,10.351-22.821c2.475,0.495,16.068-60.298,16.563-65l-2.063-0.688l-5.456-3.322
														c0,0-10.274,4.924-14.911,7.053c-6.13,2.814-7.599,45.499-7.555,89.042
														C217.115,285.909,217.635,283.395,217.635,283.395z"/>
													<g>
														<g>
															<path style="fill:#FFA55C;" d="M223.822,208.407c0,0,2.908,0.804,1.98,7.301s-2.475,8.167-3.094,12.003
																c-0.619,3.836,2.756,8.253,5.354,10.728s0.167,25.75,0.167,25.75s5.74,4.852,8.462,4.852
																c2.722,0,25.038-9.185,25.038-9.185s-0.376-1.005-0.5-1.5c-0.124-0.495,10.976-37.45,10.976-37.45l-2.475-10.889
																L223.822,208.407z"/>
															<path style="fill:#FFA55C;" d="M263.172,215.832c0,0,9.501,80.233,12.224,80.357c2.722,0.124,16.753-1.858,17-4.333
																c0,0-12.121-84.591-15.833-89.417s-12.385-7.489-16.221-10.458c0,0-11.547,4.466-13.279,5.208
																s-12.722,16.292-12.722,16.292L263.172,215.832z"/>
														</g>
													</g>
													<path style="fill:#FFA55C;" d="M228.313,256.939c0,0,4.79,9.998,8.997,9.256c4.207-0.742,23.677-8.336,23.677-8.336
														l14,28.375l-34.925,46.622c0,0-28.669-8.131-33-21L228.313,256.939z"/>
												</g>
												<g>
													<polygon style="fill:#E8904D;" points="263.188,223.689 264.479,246.689 266.229,241.189 													"/>
													<path style="fill:#E8904D;" d="M231.221,235.227c0,0,4.622-1.648,9.696-0.163c5.073,1.485,6.391,0.905,6.391,0.905
														s-8.538,2.97-10.766,2.97C234.314,238.939,231.221,235.227,231.221,235.227z"/>
													<path style="fill:#E8904D;" d="M224.188,252.689c-1.005,11.332-6.025,24.97-7.474,32.802l4.599-12.563
														c-0.072-0.438,0.707-2.412,1.769-4.833l0.276-0.755c0,0,0.024-0.001,0.059-0.002
														c2.063-4.628,4.896-10.398,4.896-10.398c0.048,0,0.114,0.012,0.188,0.029l0.562-7.445
														c0.257-2.055-0.23-7.068-0.5-9.121c-0.126-0.959-0.289-1.761-0.5-1.962c-2.599-2.475-5.035-9.081-4.417-12.917
														s1.228-3.318,2.156-9.814c0.508-3.559-0.135-5.403-0.82-6.349c-0.037,0.014-0.071,0.023-0.108,0.038
														c0,0,0.274,5.246-0.557,7.858c-2.026,6.373-2.048,7.066-2.13,10.559C222.158,229.076,225.113,242.257,224.188,252.689z
														"/>
												</g>
											</g>
											<path style="fill:#E8904D;" d="M238.857,193.929l2.206-2.491c0,0,3,3.5,7.375,2.875s8.875-4.875,8.875-4.875l3.029,2.542
												c0,0-8.279,7.583-13.904,7.333S238.857,193.929,238.857,193.929z"/>
										</g>
									</g>
								</g>
							</g>
						</g>
					</g>
					<polygon style="fill:#934252;" points="291.688,312.788 283.844,304.325 285.973,302.352 291.919,308.767 312.449,291.169 
						314.339,293.373 					"/>
				</g>
			</g>
			<g>
				<g>
					<defs>
						<rect id="SVGID_00000149364097598528908230000012646771723798088894_" x="183.391" y="327.25" width="121" height="168.75"/>
					</defs>
					<clipPath id="SVGID_00000170956732450092793500000002683392550876795837_">
						<use xlink:href="#SVGID_00000149364097598528908230000012646771723798088894_"  style="overflow:visible;"/>
					</clipPath>
					<g style="clip-path:url(#SVGID_00000170956732450092793500000002683392550876795837_);">
						<g>
							<g>
								<path style="fill:#E29A7A;" d="M263.644,313.752l-12.571-3.449l-14.682,36.947c-0.868,3.991,2.111,7.685-1.789,7.841
									l-0.751,2.073l10.215,5.372l35.824-39.285L263.644,313.752z"/>
							</g>
							<g>
								<path style="fill:#E29A7A;" d="M242.307,315.333c0,0-38.667,28.333-39.333,35c-0.667,6.667,7.667,11,15.333,8
									c7.667-3,50.333-32,50.333-32L242.307,315.333z"/>
								<path style="fill:#E29A7A;" d="M248.536,306.715c0,0-46.1,13.142-49.04,19.162c-2.94,6.02,3.37,12.978,11.601,12.827
									c8.231-0.151,58.314-12.529,58.314-12.529L248.536,306.715z"/>
							</g>
						</g>
						<path style="fill:#F9B590;" d="M289.625,366.878c1.017-8.014,2.616-11.023,4.016-20.878c2.211-15.57,0.285-65.714-2.5-68.5
							c-2.616-2.617-32.391,8.652-34.637,7.845c0,0,11.171,34.917,8.47,42.322c-2.406,6.596-20.656,19.951-22.877,22.576
							c-0.136,0.272-0.284,0.536-0.446,0.789c-0.061,1.449-0.137,8.654,3.751,17.606c4.357,10.031-6.501,71.611-3.666,76.95
							c2.834,5.34,26.467,11.936,26.967,2.962C269.203,439.577,288.607,374.892,289.625,366.878z"/>
					</g>
				</g>
				<g>
					<g>
						<g>
							<g>
								<path style="fill:#E29A7A;" d="M239.641,350.333c0,0,12.125,23.565,10.334,30.684c0,0,1.651-9.813-1.916-21.247
									s-3.647-12.177-3.647-12.177l-2.122,1.96"/>
								<g>
									<path style="fill:#F9B590;" d="M268.351,450.17c0,0,0.03-0.132,0.049-0.218
										C268.389,449.997,268.375,450.059,268.351,450.17z"/>
									<path style="fill:#F9B590;" d="M268.4,449.952C268.422,449.853,268.415,449.882,268.4,449.952L268.4,449.952z"/>
									<path style="fill:#F9B590;" d="M252.901,427.673c12.109-13.351,4.673-34.83-2.684-49.994s-11.827-39.147-9.471-52.198
										s-4.378-28.019-4.378-28.019c-1.894-4.378-18.454-9.526-18.924,3.209c-0.365,9.877-3.025,14.177-2.651,30.547
										c0.297,13.02-1.147,28.089-4.368,42.889c-2.726,12.527-4.966,36.779-1.776,47.997l-0.08,0.04c0,0,7.083,28.668,8.922,32.46
										s47.099,12.324,50.859-4.434l-18.073-20.065C251.198,429.383,252.078,428.581,252.901,427.673z"/>
								</g>
							</g>
							<path style="fill:#FFC4B0;" d="M217.733,308.892c0,0,0.747-8.789,0.893-11.405c0.146-2.617,7.899-4.314,12.265-1.987
								s1.69,16.235-0.303,17.602c-1.992,1.367-8.802,1.015-10.591-0.01C218.207,312.067,217.733,308.892,217.733,308.892z"/>
						</g>
						<g>
							<path style="fill:#E29A7A;" d="M216.724,328.625c0,0-1,4.042,9.833,1.721c5.733-1.228,5.667-1.506,5.667-1.506
								S222.891,331.422,216.724,328.625z"/>
							<path style="fill:#E29A7A;" d="M215.391,335.452c0,0,6.25,3.888,11.917,2.381c5.667-1.506,3.583-2.166,3.583-2.166
								S221.557,338.249,215.391,335.452z"/>
							<path style="fill:#E29A7A;" d="M216.766,342.128c0,0,4.167,3.228,9.833,1.721c5.667-1.506,5.667-1.506,5.667-1.506
								S222.932,344.925,216.766,342.128z"/>
						</g>
					</g>
					<g>
						<path style="fill:#1D2230;" d="M272.148,500l1.54-57.318c0,0-47.247,4.251-60.882,3.464L206.048,500H272.148z"/>
						<path style="fill:#2D3547;" d="M210.307,440.833l-1.333,30.333c0,0,69-3.333,69-4.333s-2.333-30.333-2.333-30.333
							L210.307,440.833z"/>
					</g>
				</g>
			</g>
		</g>
	</g>
</g>
</svg>
